<svg width="375" height="72" viewBox="0 0 375 72" fill="none" xmlns="http://www.w3.org/2000/svg">
<g clip-path="url(#clip0_2037_60)">
<path d="M373.236 10.9798C373.236 16.0978 369.593 20.1179 364.616 20.1179C359.653 20.1179 356.104 16.1136 356.104 10.9798C356.104 5.84608 359.653 1.8418 364.616 1.8418C369.593 1.8418 373.236 5.86187 373.236 10.9798Z" stroke="white" stroke-width="0.877252"/>
<path d="M369.854 13.3638C369.854 15.8977 367.893 17.234 364.926 17.234C361.801 17.234 359.789 15.8456 359.65 13.0341C359.65 12.9473 359.736 12.8606 359.824 12.8606H361.697C361.785 12.8606 361.87 12.93 361.889 13.0341C362.062 14.5787 362.808 15.5506 364.977 15.5506C366.662 15.5506 367.736 15.0126 367.736 13.6589C367.736 10.6391 359.91 12.9473 359.91 8.20942C359.91 5.95329 361.662 4.59961 364.56 4.59961C367.354 4.59961 369.213 5.72767 369.525 8.26151C369.542 8.34827 369.456 8.43505 369.368 8.43505H367.493C367.407 8.43505 367.319 8.36563 367.303 8.26151C367.164 6.97723 366.211 6.3004 364.491 6.3004C363.016 6.3004 361.993 6.82104 361.993 7.98382C361.993 10.8127 369.854 8.59123 369.854 13.3638Z" fill="white"/>
<path d="M48.3111 22.1553C48.3111 36.5315 38.6611 43.8183 23.9894 43.8183H9.61316L9.8101 69.223C9.8101 69.7153 9.41624 70.1091 8.92387 70.1091H1.24339C0.751048 70.1091 0.357178 69.7153 0.357178 69.223L0.751048 34.7593L0.357178 2.06785C0.357178 1.57551 0.751048 1.18164 1.24339 1.18164H23.7926C38.9565 1.18164 48.3111 8.27133 48.3111 22.1553ZM9.71163 8.46827L9.51469 35.153V36.5315H24.4817C33.344 36.5315 39.3505 32.5929 39.3505 22.3523C39.3505 12.8993 33.8364 8.46827 24.088 8.46827H9.71163Z" fill="white"/>
<path d="M60.0247 41.7505H83.0664L71.4472 7.87746L60.0247 41.7505ZM101.48 70.1091H93.7009C93.2085 70.1091 92.7162 69.7153 92.5192 69.223L85.725 49.5294H57.3662L50.7689 69.223C50.572 69.7153 50.0796 70.1091 49.5872 70.1091H42.0053C41.6113 70.1091 41.3159 69.7153 41.4143 69.3213L65.5391 1.96939C65.7361 1.57551 66.2282 1.18164 66.7206 1.18164H76.9613C77.4537 1.18164 77.946 1.57551 78.143 1.96939L102.071 69.3213C102.169 69.7153 101.972 70.1091 101.48 70.1091Z" fill="white"/>
<path d="M115.577 70.1091H107.995C107.503 70.1091 107.109 69.7153 107.109 69.223L107.503 35.0547L107.109 2.06785C107.109 1.57551 107.503 1.18164 107.995 1.18164H115.577C116.069 1.18164 116.463 1.57551 116.463 2.06785L116.069 35.0547L116.463 69.223C116.463 69.7153 116.069 70.1091 115.577 70.1091Z" fill="white"/>
<path d="M178.629 49.9231C178.629 64.1025 167.601 71.2907 151.945 71.2907C134.417 71.2907 124.078 62.9211 123.389 47.2646C123.389 46.7722 123.783 46.3785 124.275 46.3785H131.956C132.448 46.3785 132.842 46.7722 132.94 47.2646C133.827 57.6037 138.75 63.9056 152.24 63.9056C162.382 63.9056 169.669 60.1639 169.669 51.1049C169.669 32.1005 124.768 45.9845 124.768 19.6936C124.768 7.08968 134.811 0 150.074 0C165.829 0 175.577 6.59734 177.054 20.7767C177.153 21.2691 176.759 21.6629 176.266 21.6629H168.487C167.995 21.6629 167.601 21.2691 167.503 20.7767C166.715 11.9146 160.905 7.48356 149.778 7.48356C140.227 7.48356 133.728 11.0284 133.728 18.8074C133.728 36.5315 178.629 22.943 178.629 49.9231Z" fill="white"/>
<path d="M197.63 41.7505H220.671L209.052 7.87746L197.63 41.7505ZM239.086 70.1091H231.306C230.814 70.1091 230.321 69.7153 230.124 69.223L223.33 49.5294H194.971L188.374 69.223C188.177 69.7153 187.685 70.1091 187.192 70.1091H179.61C179.217 70.1091 178.921 69.7153 179.02 69.3213L203.144 1.96939C203.341 1.57551 203.833 1.18164 204.326 1.18164H214.567C215.059 1.18164 215.551 1.57551 215.748 1.96939L239.676 69.3213C239.773 69.7153 239.576 70.1091 239.086 70.1091Z" fill="white"/>
<path d="M252.69 20.4814L252.886 38.698L252.986 69.223C252.986 69.7153 252.59 70.1091 252.099 70.1091H245.009C244.516 70.1091 244.123 69.7153 244.123 69.223L244.516 35.153L244.222 2.06785C244.222 1.57551 244.616 1.18164 245.106 1.18164H254.067C254.56 1.18164 255.15 1.47705 255.447 1.96939L291.486 58.4901L291.386 52.582L291.19 33.3806L291.092 2.06785C291.092 1.57551 291.486 1.18164 291.979 1.18164H298.97C299.463 1.18164 299.856 1.57551 299.856 2.06785L299.463 35.153L299.757 69.223C299.757 69.7153 299.363 70.1091 298.87 70.1091H289.516C289.023 70.1091 288.433 69.8137 288.139 69.3213L252.493 13.7855L252.69 20.4814Z" fill="white"/>
<path d="M322.926 41.7505H345.967L334.349 7.87746L322.926 41.7505ZM364.382 70.1091H356.602C356.111 70.1091 355.618 69.7153 355.421 69.223L348.627 49.5294H320.268L313.671 69.223C313.474 69.7153 312.981 70.1091 312.488 70.1091H304.907C304.514 70.1091 304.217 69.7153 304.317 69.3213L328.44 1.96939C328.636 1.57551 329.13 1.18164 329.623 1.18164H339.863C340.354 1.18164 340.847 1.57551 341.044 1.96939L364.972 69.3213C365.072 69.7153 364.873 70.1091 364.382 70.1091Z" fill="white"/>
</g>
<defs>
<clipPath id="clip0_2037_60">
<rect width="375" height="71.7593" fill="white"/>
</clipPath>
</defs>
</svg>
